#!OML:ASF F:\VICON\USERDATA\INSTALL\rory3\rory3.ASF
:FULLY-SPECIFIED
:DEGREES
36
root 0.5647335631835572 17.859107242292314 14.878079837417673 -3.8566446278246724 -0.7894291687614233 -0.7640869616827419
lfemur -8.106573086949837 -2.260989391852682 -21.69986004465502
ltibia 20.846159064787052
lfoot -5.132874614795337 -6.241223295576365
ltoes -5.9373667973456
rfemur -17.588570792916162 0.568076728624958 22.944826075218412
rtibia 61.22952241653211
rfoot -7.633802554723667 -7.76345189246201
rtoes 6.458186746203835
lowerback nan 0.8736824540408765 0.05192198307310636
upperback 0.07434270538045985 1.1506650707148072 1.0725128764108138
thorax -5.980587504131766 0.6129525175996823 0.13855011322309596
lowerneck -16.642686238443577 -3.7896913143431696 -1.6620966063441238
upperneck 21.600267138258047 -5.345894825070137 2.4777746872933317
head 9.832469910173 -2.341428355687034 0.4272233562822745
lclavicle -2.5780424243508755e-15 -2.7824053292658105e-15
lhumerus -27.292389455996386 -0.1860087549136824 81.75777246927073
lradius 29.631141158610557
lwrist 9.688242805836094
lhand -29.822868256687308 20.77481089202634
lfingers nan
lthumb -2.916564348981056 51.199127318881764
rclavicle -2.554197298583785e-15 -2.7811311968832063e-15
rhumerus -28.312693294224065 -16.09191846729892 -79.8065707687768
rradius 27.157570049703285
rwrist 6.718669519354639
rhand -17.493581806597824 nan
rfingers nan
rthumb 9.096230148090903 -7.266474483232578
37
root 0.6256208522263934 17.841650906615953 16.30799566555904 -4.45578594613232 0.438557380660888 1.2753874068534485
lfemur -5.3047247112874825 -3.0263841593980683 -24.3388238216793
ltibia 22.092708213836254
lfoot -6.479968751364492 -5.273177401049086
ltoes -5.460775945821371
rfemur -20.20724198155418 -0.9633129302550607 19.613040962015248
rtibia 61.97321845096262
rfoot -8.587915018295977 -7.2945180998015395
rtoes 5.484618941921496
lowerback nan 0.6921557317986159 -1.653944991432067
upperback 0.21683603051446043 0.5878892765057752 0.8011613423386849
thorax -5.912946235669654 0.35745591361887075 1.3847412571527864
lowerneck -16.86647163131658 -3.70451355127232 -1.7127053143238575
upperneck 21.368781692120617 -5.177867771273885 2.5582715854829976
head 9.795002512488091 -2.2739943122701396 0.49094840508624094
lclavicle -2.5660503105824526e-15 -2.771787748421676e-15
lhumerus -25.592248446970537 -1.3274673730143793 81.3622062768241
lradius 30.23707205734293
lwrist 9.194041473548728
lhand -29.609438825528144 20.102513176949955
lfingers nan
lthumb -2.666373864410332 50.65328078968935
rclavicle -2.560528966430684e-15 -2.7758015731319687e-15
rhumerus -29.267449264468947 -17.680290371104626 -80.51900771099812
rradius 25.87012916715995
rwrist 8.880027610211155
rhand -17.469099020022554 nan
rfingers nan
rthumb 9.036449997997298 -7.143504625436272
38
root 0.6395054825882307 17.830691649325274 18.76213897564086 -3.9769146611885713 1.2850487151281214 -0.5412777592581657
lfemur -3.0679008055778505 -3.4250463101104396 -22.91897186765722
ltibia 23.32393246850222
lfoot -8.882637135124304 -4.788581102144709
ltoes -4.717626040688163
rfemur -22.561316728501495 -1.4254703732071272 20.928705887224062
rtibia 60.626239824982626
rfoot -9.107174587686314 -6.947694533749749
rtoes 4.340011922127909
lowerback nan 0.3801701976404375 -0.5139611185439821
upperback 0.1277436786035665 0.3857052258321654 1.175342819602065
thorax -5.996047124937313 0.20429329500533805 1.464170714185612
lowerneck -16.975257132236273 -3.581715757006592 -1.7547977212472166
upperneck 21.285137112893178 -4.954741847305429 2.496597125614005
head 9.732974618644644 -2.202437328790317 0.5239184561826612
lclavicle -2.567355500998752e-15 -2.76832140670809e-15
lhumerus -24.347763181012652 -2.081427375695893 80.96961479357932
lradius 31.072660371258205
lwrist 9.079465970325046
lhand -29.634792931147583 19.8401205439311
lfingers nan
lthumb -2.62090907277958 50.55906120221217
rclavicle -2.5555169133347986e-15 -2.7617583190075925e-15
rhumerus -30.442296844816823 -19.127313473121568 -81.01882899069692
rradius 25.19378762006896
rwrist 9.537569942887865
rhand -17.448569629792047 nan
rfingers nan
rthumb 9.036930800315929 -6.874685365690507
39
root 0.6425209411650612 17.823838995225763 20.204959163194644 -3.9566957224761894 1.2333552043751952 -0.2737920154921971
lfemur -0.4906104769874773 -3.476583121382787 -23.088681016291616
ltibia 23.794357290147964
lfoot -11.41657987351483 -4.166466513545749
ltoes -4.169259386316176
rfemur -24.211147925898445 -1.1693236872952806 20.483575574510898
rtibia 58.36010174534208
rfoot -9.16904277108277 -6.700026143220485
rtoes 4.084424870624845
lowerback nan 0.0899252057575743 -1.1215737814868003
upperback 0.0950504212407101 -0.025479072001127256 1.2736185038548093
thorax -6.081665098238709 0.07120830722401311 2.12262139000285
lowerneck -17.052860035899265 -3.462010075963993 -1.8172084307110392
upperneck 21.255977673392724 -4.7184659030853915 2.3791850643090107
head 9.68335909023258 -2.1233707102293247 0.5396393740833934
lclavicle -2.5645667728745898e-15 -2.7654627749151025e-15
lhumerus -23.702323388437783 -2.3857381591225537 80.62127663928368
lradius 31.888086858617942
lwrist 8.124855281317997
lhand -29.428904567605493 19.07705641683043
lfingers nan
lthumb -2.4940277558098156 49.87008453416756
rclavicle -2.5453457320666028e-15 -2.7543471122420062e-15
rhumerus -31.80594578021346 -20.262815663087363 -81.2917548138114
rradius 25.107681881675447
rwrist 7.511250146839471
rhand -17.410481248628766 nan
rfingers nan
rthumb 8.99428032941398 -6.754989849678484
